HIERARCHY
ROOT hips_JNT
{
    OFFSET 0 0 0
    CHANNELS 6 Xposition Yposition Zposition Zrotation Xrotation Yrotation
    JOINT spine_JNT
    {
        OFFSET -0.000424254 9.31981 2.54342
        CHANNELS 3 Zrotation Xrotation Yrotation
        JOINT spine1_JNT
        {
            OFFSET 0 10.8731 -4.54485e-05
            CHANNELS 3 Zrotation Xrotation Yrotation
            JOINT spine2_JNT
            {
                OFFSET 0 12.4264 -5.95116
                CHANNELS 3 Zrotation Xrotation Yrotation
                JOINT neck_JNT
                {
                    OFFSET 0 13.9797 -1.46048
                    CHANNELS 3 Zrotation Xrotation Yrotation
                    JOINT head_JNT
                    {
                        OFFSET 0 5.8702 2.0915
                        CHANNELS 3 Zrotation Xrotation Yrotation
                        End Site
                        {
                            OFFSET 0 0 0
                        }
                    }
                }
                JOINT l_shoulder_JNT
                {
                    OFFSET 4.39914 12.861 -1.48501
                    CHANNELS 3 Zrotation Xrotation Yrotation
                    JOINT l_arm_JNT
                    {
                        OFFSET 8.75735 -2.31198 -0.0490516
                        CHANNELS 3 Zrotation Xrotation Yrotation
                        JOINT l_forearm_JNT
                        {
                            OFFSET 26.9001 -4.76837e-05 1.2666e-05
                            CHANNELS 3 Zrotation Xrotation Yrotation
                            JOINT l_hand_JNT
                            {
                                OFFSET 23.0148 -4.76837e-05 -3.72529e-06
                                CHANNELS 3 Zrotation Xrotation Yrotation
                                JOINT l_handThumb1_JNT
                                {
                                    OFFSET 3.63 -0.779998 2.13
                                    CHANNELS 3 Zrotation Xrotation Yrotation
                                    JOINT l_handThumb2_JNT
                                    {
                                        OFFSET 3.55114 -2.11837 2.24006
                                        CHANNELS 3 Zrotation Xrotation Yrotation
                                        JOINT l_handThumb3_JNT
                                        {
                                            OFFSET 2.15911 -1.11631 0.963467
                                            CHANNELS 3 Zrotation Xrotation Yrotation
                                            End Site
                                            {
                                                OFFSET 0 0 0
                                            }
                                        }
                                    }
                                }
                                JOINT l_handIndex1_JNT
                                {
                                    OFFSET 10.5149 -0.0410199 2.19757
                                    CHANNELS 3 Zrotation Xrotation Yrotation
                                    JOINT l_handIndex2_JNT
                                    {
                                        OFFSET 2.75183 -0.102866 -0.139054
                                        CHANNELS 3 Zrotation Xrotation Yrotation
                                        JOINT l_handIndex3_JNT
                                        {
                                            OFFSET 2.35301 -0.0733972 -0.0904871
                                            CHANNELS 3 Zrotation Xrotation Yrotation
                                            End Site
                                            {
                                                OFFSET 0 0 0
                                            }
                                        }
                                    }
                                }
                                JOINT l_handMiddle1_JNT
                                {
                                    OFFSET 10.0671 0.139201 0.0595726
                                    CHANNELS 3 Zrotation Xrotation Yrotation
                                    JOINT l_handMiddle2_JNT
                                    {
                                        OFFSET 3.90903 -0.288403 -0.119066
                                        CHANNELS 3 Zrotation Xrotation Yrotation
                                        JOINT l_handMiddle3_JNT
                                        {
                                            OFFSET 2.3284 -0.0191092 -0.0594396
                                            CHANNELS 3 Zrotation Xrotation Yrotation
                                            End Site
                                            {
                                                OFFSET 0 0 0
                                            }
                                        }
                                    }
                                }
                                JOINT l_handRing1_JNT
                                {
                                    OFFSET 9.46811 0.132239 -1.80983
                                    CHANNELS 3 Zrotation Xrotation Yrotation
                                    JOINT l_handRing2_JNT
                                    {
                                        OFFSET 3.28153 -0.224054 -0.0339366
                                        CHANNELS 3 Zrotation Xrotation Yrotation
                                        JOINT l_handRing3_JNT
                                        {
                                            OFFSET 2.245 -0.0702143 -0.00838935
                                            CHANNELS 3 Zrotation Xrotation Yrotation
                                            End Site
                                            {
                                                OFFSET 0 0 0
                                            }
                                        }
                                    }
                                }
                                JOINT l_handPinky1_JNT
                                {
                                    OFFSET 8.49077 -0.0777721 -3.58415
                                    CHANNELS 3 Zrotation Xrotation Yrotation
                                    JOINT l_handPinky2_JNT
                                    {
                                        OFFSET 2.53217 -0.0730753 -0.0170402
                                        CHANNELS 3 Zrotation Xrotation Yrotation
                                        JOINT l_handPinky3_JNT
                                        {
                                            OFFSET 1.95121 0.0251174 0.0170089
                                            CHANNELS 3 Zrotation Xrotation Yrotation
                                            End Site
                                            {
                                                OFFSET 0 0 0
                                            }
                                        }
                                    }
                                }
                            }
                        }
                    }
                }
                JOINT r_shoulder_JNT
                {
                    OFFSET -4.39782 12.8606 -1.48501
                    CHANNELS 3 Zrotation Xrotation Yrotation
                    JOINT r_arm_JNT
                    {
                        OFFSET -8.75732 -2.312 -0.0490502
                        CHANNELS 3 Zrotation Xrotation Yrotation
                        JOINT r_forearm_JNT
                        {
                            OFFSET -26.9 0 1.00583e-05
                            CHANNELS 3 Zrotation Xrotation Yrotation
                            JOINT r_hand_JNT
                            {
                                OFFSET -23.0149 0 0
                                CHANNELS 3 Zrotation Xrotation Yrotation
                                JOINT r_handThumb1_JNT
                                {
                                    OFFSET -3.63 -0.779998 2.13
                                    CHANNELS 3 Zrotation Xrotation Yrotation
                                    JOINT r_handThumb2_JNT
                                    {
                                        OFFSET -3.5512 -2.118 2.24006
                                        CHANNELS 3 Zrotation Xrotation Yrotation
                                        JOINT r_handThumb3_JNT
                                        {
                                            OFFSET -2.1591 -1.116 0.963467
                                            CHANNELS 3 Zrotation Xrotation Yrotation
                                            End Site
                                            {
                                                OFFSET 0 0 0
                                            }
                                        }
                                    }
                                }
                                JOINT r_handIndex1_JNT
                                {
                                    OFFSET -10.5149 -0.0409961 2.19756
                                    CHANNELS 3 Zrotation Xrotation Yrotation
                                    JOINT r_handIndex2_JNT
                                    {
                                        OFFSET -2.7518 -0.102997 -0.13905
                                        CHANNELS 3 Zrotation Xrotation Yrotation
                                        JOINT r_handIndex3_JNT
                                        {
                                            OFFSET -2.353 -0.0730038 -0.0904899
                                            CHANNELS 3 Zrotation Xrotation Yrotation
                                            End Site
                                            {
                                                OFFSET 0 0 0
                                            }
                                        }
                                    }
                                }
                                JOINT r_handMiddle1_JNT
                                {
                                    OFFSET -10.0671 0.139999 0.05957
                                    CHANNELS 3 Zrotation Xrotation Yrotation
                                    JOINT r_handMiddle2_JNT
                                    {
                                        OFFSET -3.9091 -0.288999 -0.11907
                                        CHANNELS 3 Zrotation Xrotation Yrotation
                                        JOINT r_handMiddle3_JNT
                                        {
                                            OFFSET -2.3284 -0.019002 -0.05944
                                            CHANNELS 3 Zrotation Xrotation Yrotation
                                            End Site
                                            {
                                                OFFSET 0 0 0
                                            }
                                        }
                                    }
                                }
                                JOINT r_handRing1_JNT
                                {
                                    OFFSET -9.4681 0.133002 -1.80983
                                    CHANNELS 3 Zrotation Xrotation Yrotation
                                    JOINT r_handRing2_JNT
                                    {
                                        OFFSET -3.2816 -0.224996 -0.0339396
                                        CHANNELS 3 Zrotation Xrotation Yrotation
                                        JOINT r_handRing3_JNT
                                        {
                                            OFFSET -2.245 -0.0699997 -0.0083901
                                            CHANNELS 3 Zrotation Xrotation Yrotation
                                            End Site
                                            {
                                                OFFSET 0 0 0
                                            }
                                        }
                                    }
                                }
                                JOINT r_handPinky1_JNT
                                {
                                    OFFSET -8.4908 -0.0769973 -3.58415
                                    CHANNELS 3 Zrotation Xrotation Yrotation
                                    JOINT r_handPinky2_JNT
                                    {
                                        OFFSET -2.5322 -0.0740051 -0.0170402
                                        CHANNELS 3 Zrotation Xrotation Yrotation
                                        JOINT r_handPinky3_JNT
                                        {
                                            OFFSET -1.9512 0.0259995 0.0170097
                                            CHANNELS 3 Zrotation Xrotation Yrotation
                                            End Site
                                            {
                                                OFFSET 0 0 0
                                            }
                                        }
                                    }
                                }
                            }
                        }
                    }
                }
            }
        }
    }
    JOINT l_upleg_JNT
    {
        OFFSET 10.0614 -5.18575 -0.706233
        CHANNELS 3 Zrotation Xrotation Yrotation
        JOINT l_leg_JNT
        {
            OFFSET -0.348572 -45.5824 -0.819168
            CHANNELS 3 Zrotation Xrotation Yrotation
            JOINT l_foot_JNT
            {
                OFFSET 0.349145 -42.3325 -1.70849
                CHANNELS 3 Zrotation Xrotation Yrotation
                JOINT l_toebase_JNT
                {
                    OFFSET 0.0702709 -8.12666 12.8887
                    CHANNELS 3 Zrotation Xrotation Yrotation
                    End Site
                    {
                        OFFSET 0 0 0
                    }
                }
            }
        }
    }
    JOINT r_upleg_JNT
    {
        OFFSET -10.061 -5.18577 -0.706233
        CHANNELS 3 Zrotation Xrotation Yrotation
        JOINT r_leg_JNT
        {
            OFFSET 0.34858 -45.5824 -0.819165
            CHANNELS 3 Zrotation Xrotation Yrotation
            JOINT r_foot_JNT
            {
                OFFSET -0.34918 -42.3325 -1.70849
                CHANNELS 3 Zrotation Xrotation Yrotation
                JOINT r_toebase_JNT
                {
                    OFFSET -0.0702001 -8.12666 12.8887
                    CHANNELS 3 Zrotation Xrotation Yrotation
                    End Site
                    {
                        OFFSET 0 0 0
                    }
                }
            }
        }
    }
}
MOTION
Frames: 7
Frame Time: 0.033333
-0.0208754 101.429 0.0542632 -0.133882 -0.0918435 42.6598 -1.54549 -0.353962 4.25119 2.66804e-08 1.06722e-07 0 -0.691606 -0.150697 4.35418 8.96358 2.96892 0.274112 -2.48858 -13.3742 -21.3252 -1.60083e-07 1.06722e-07 0 -60.3537 -1.04571 -3.03137 1.70775e-06 -1.70735e-06 0 108.152 55.1478 -21.778 -0.612346 11.037 28.019 4.78542 1.79345 6.03311 1.78428 7.16397 13.312 -30.4732 -2.65419 15.0124 -1.36899 0.0524436 0 -3.97846 0.153466 0 -32.5525 -3.70465 14.8173 -0 0 0 -2.17704 0.0372443 0 -36.5548 -4.85283 14.5016 -10.959 -0.021417 -0.125115 -1.51078 -0.00446818 0 -44.4169 -6.78006 9.29688 -14.065 -0.831371 0.0969133 -0.806722 -0.0500787 0.158259 -1.60083e-07 1.06722e-07 0 0.760987 34.3262 -12.6453 -1.70755e-06 -8.15755e-10 0 50.0087 52.9514 -90 16.2188 17.8781 -29.0005 -5.12158 -6.07382 5.49461 -0.874797 2.74065 -5.20121 0.917019 -0.0246159 -10.5699 28.2025 1.12409 0.118694 27.952 1.11405 0.131221 5.89479 -0.50086 -12.6151 36.5994 0.717569 0.253338 30.0439 0.578444 0.243893 16.8359 -2.14178 -14.7989 29.2343 0.00266872 0.383594 27.3703 -0.00337873 0.362616 54.9956 -10.631 -13.0295 43.0396 -2.19859 1.2636 41.3568 -2.13701 1.17701 0.247919 2.4985 0.0395647 -0.471891 -1.28162 0 0.384582 -1.02303 0.068528 -8.53809e-07 0.000874798 0 -0.210253 2.49611 0.068528 0.471938 -1.28161 0 -0.100953 -1.0237 0 4.26892e-07 0.000188044 0 
0.0331168 101.374 0.172964 -0.124581 0.000459947 42.1397 -1.55028 -0.412355 4.09989 1.06722e-07 5.33608e-08 0 -0.654162 -0.167247 4.09416 7.53029 1.23265 0.0791294 -2.59328 -12.9629 -16.7932 4.7685e-15 1.60083e-07 0 -60.1384 -0.901003 -3.12571 4.2707e-06 1.70295e-06 0 108.627 56.223 -22.0731 -0.612549 11.0371 28.0189 4.78541 1.79347 6.03311 1.78442 7.16508 13.314 -30.4746 -2.65432 15.0124 -1.36849 0.0524244 0 -3.97893 0.153484 0.0395647 -32.5555 -3.70502 14.8172 -0 0 0 -2.17706 0.0372446 0 -36.5579 -4.85333 14.5017 -10.9599 -0.0214177 -0.137056 -1.51037 -0.00446705 0 -44.4189 -6.78038 9.2968 -14.0658 -0.831414 0.0969133 -0.806731 -0.0500793 0.158259 4.7685e-15 1.60083e-07 0 -1.85393 28.1126 -10.1294 1.2804e-06 8.54158e-07 0 -6.16891 42.6452 -47.9987 16.2188 17.8781 -29.0005 -5.07741 -6.03822 5.47791 -0.874897 2.74102 -5.20166 0.93777 -0.0255357 -10.5608 28.1896 1.12357 0.125115 27.9551 1.11417 0.118694 5.90012 -0.500878 -12.6049 36.6018 0.717622 0.253338 30.0595 0.578773 0.240663 16.8377 -2.14203 -14.799 29.2495 0.00272108 0.385629 27.3838 -0.00333795 0.358274 54.9487 -10.6218 -13.0319 43.0786 -2.19999 1.2636 41.3587 -2.13708 1.17768 0.161223 2.57415 0.0559529 -0.471898 -1.28161 0 0.432427 -1.15897 0.533757 -1.28042e-06 -0.00844489 0 -0.293491 2.45427 0.0395647 0.471942 -1.28162 0 -0.0881105 -1.04258 0.520393 8.53528e-07 -0.00863154 0 
0.0829401 101.329 0.23233 -0.131156 0.119335 41.4965 -1.57419 -0.537748 3.7584 2.66804e-08 1.06722e-07 0 -0.617163 -0.210065 3.70913 5.95034 -0.847425 0.125115 -2.56329 -11.8858 -12.4264 -1.60083e-07 1.06722e-07 0 -59.937 -1.37528 -3.33296 -8.11177e-07 6.83538e-06 -0.71436 111.088 57.4225 -24.5901 -0.621295 11.0409 28.0186 4.78447 1.79347 6.03233 1.78443 7.16515 13.3142 -30.4806 -2.6549 15.0125 -1.36593 0.0523259 0 -3.97938 0.153502 0.0395647 -32.5615 -3.70576 14.8173 -0 0 0 -2.17457 0.0372016 0 -36.5649 -4.85308 14.4979 -10.958 -0.0214162 -0.131221 -1.50917 -0.00446368 0 -44.4268 -6.78013 9.293 -14.0651 -0.831379 0.0969133 -0.806019 -0.0500359 0.167859 -1.60083e-07 1.06722e-07 0 -5.23078 19.6527 -5.92295 -1.70724e-06 1.28107e-06 0 -37.4281 15.8098 -29.3705 16.2188 17.8781 -29.0005 -5.00065 -5.97421 5.44594 -0.875002 2.74141 -5.20256 0.976016 -0.0272129 -10.5427 28.1617 1.12246 0.125115 27.9546 1.11415 0.118694 5.91065 -0.500853 -12.5836 36.5945 0.717466 0.256409 30.0775 0.579153 0.243893 16.8346 -2.1416 -14.799 29.26 0.00275759 0.383594 27.3934 -0.00330871 0.362616 54.8631 -10.605 -13.0366 43.1239 -2.20161 1.26731 41.3448 -2.13656 1.17635 0.0410381 2.59914 0 -0.471896 -1.2816 0 0.446066 -1.27682 1.18629 4.26319e-07 -0.0118374 0 -0.418376 2.33362 0.0395647 0.471942 -1.28161 0 0.0037769 -1.01364 1.17302 -4.2671e-07 -0.0122702 0 
0.0751854 101.273 0.136826 -0.123582 0.180644 40.6499 -1.61035 -0.67561 3.27395 -1.33402e-07 -1.06722e-07 0 -0.571931 -0.253033 3.23475 4.58054 -2.66109 -0.237388 -2.36566 -10.1135 -8.45951 5.33608e-08 -1.06722e-07 0 -60.2365 -2.72865 -1.58062 3.86274e-06 -5.43544e-06 -8.8116 123.987 59.0768 -38.1633 -0.647268 11.0523 28.0175 4.78163 1.79339 6.03051 1.78398 7.16168 13.3077 -30.4943 -2.65621 15.0127 -1.3598 0.0520902 0 -3.97916 0.153493 0 -32.5697 -3.70677 14.8174 -0 0 0 -2.16693 0.0370699 0 -36.5763 -4.85066 14.4853 -10.9491 -0.0214092 -0.137056 -1.50684 -0.00445716 0 -44.444 -6.7783 9.28162 -14.0608 -0.831132 0.0884693 -0.80383 -0.0499026 0.163129 5.33608e-08 -1.06722e-07 0 -7.97751 10.2247 -0.662045 -1.49407e-06 4.2701e-07 0 -55.8536 -16.5085 -24.1964 16.2188 17.8781 -29.0005 -4.90871 -5.89316 5.40119 -0.875005 2.74142 -5.20256 1.02596 -0.0293646 -10.516 28.1171 1.12067 0.118694 27.9422 1.11366 0.118694 5.92536 -0.50067 -12.5511 36.5631 0.716796 0.247081 30.0814 0.579235 0.240663 16.8184 -2.13941 -14.7992 29.2422 0.00269606 0.383594 27.3786 -0.00335344 0.360452 54.7511 -10.5829 -13.0425 43.1352 -2.20201 1.26731 41.296 -2.13474 1.17368 -0.105471 2.60013 0.0559529 -0.471898 -1.2816 0 0.546624 -1.31913 2.04058 4.27129e-07 -0.0118015 0.0559529 -0.555655 2.14212 0 0.471941 -1.28161 0 0.0531183 -0.864053 2.02557 4.27287e-07 -0.0140746 0 
-0.0234138 101.179 -0.144783 -0.0773161 0.118886 39.5852 -1.65076 -0.816835 2.71565 5.33608e-08 1.06722e-07 0.0559529 -0.518788 -0.293103 2.71969 3.5002 -4.03534 -0.552491 -1.97618 -7.72092 -5.10871 1.59028e-15 -5.33609e-08 0 -61.2612 -4.60553 0.769227 3.7582e-06 -3.26489e-06 -20.0368 142.989 58.1695 -57.3614 -0.695632 11.0736 28.0156 4.7763 1.79318 6.02727 1.78281 7.15267 13.2915 -30.517 -2.65839 15.0129 -1.34941 0.0516905 0 -3.97768 0.153435 0 -32.5784 -3.70783 14.8173 -0 0 0 -2.15256 0.0368224 0 -36.5908 -4.84498 14.4612 -10.9305 -0.0213946 0.118694 -1.50334 -0.00444737 0.0395647 -44.4717 -6.77414 9.26057 -14.0508 -0.830572 0.0884693 -0.79972 -0.0496524 0.167859 1.59028e-15 -5.33609e-08 0 -8.94207 -1.47395 4.43558 -1.06148e-06 -4.40957e-07 1.51488 -73.3198 -50.6222 -27.7232 16.2188 17.8781 -29.0005 -4.82516 -5.81208 5.34919 -0.874811 2.74071 -5.20136 1.07799 -0.0315458 -10.4839 28.0573 1.11827 0.118694 27.9109 1.1124 0.125115 5.94175 -0.500202 -12.5095 36.497 0.715387 0.253338 30.0556 0.57869 0.237388 16.783 -2.13458 -14.7996 29.1761 0.00246779 0.383594 27.3219 -0.0035252 0.362616 54.6321 -10.5595 -13.0486 43.0755 -2.19988 1.26484 41.1991 -2.13111 1.16968 -0.246761 2.61867 0.0884693 -0.471895 -1.2816 0 0.691893 -1.2611 3.11366 -0.00368389 -0.293619 -0.30901 -0.685888 0.992728 0.0395647 0.471853 0.637288 0 0.188075 -1.55697 3.10737 0.00220859 -0.806423 0.301316 
-0.181194 101.025 -0.53349 0.000724699 -0.0520869 38.3843 -1.64781 -0.797252 2.21106 -1.06722e-07 -1.06722e-07 0 -0.473771 -0.276072 2.25834 2.58967 -5.41684 -1.06385 -1.37793 -4.87781 -2.5142 -7.76503e-19 -5.33609e-08 0 -62.1576 -3.50707 2.3367 6.53804e-06 4.38327e-06 -31.1197 164.901 56.59 -77.3075 -0.764253 11.1038 28.0128 4.76866 1.79283 6.02207 1.78086 7.13767 13.2643 -30.5466 -2.66124 15.0133 -1.33558 0.0511589 0 -3.97461 0.153316 0.0395647 -32.5849 -3.70863 14.8173 -0 0 0 -2.13209 0.0364695 0 -36.6053 -4.83588 14.4266 -10.9021 -0.0213722 -0.125115 -1.49911 -0.00443553 0 -44.507 -6.76756 9.23074 -14.0352 -0.829691 0.0791294 -0.793877 -0.0492965 0.167859 -7.76503e-19 -5.33609e-08 0 2.5752 -53.9324 2.40732 -4.9227e-06 1.45582e-05 37.3649 46.2996 -83.1121 90 16.2188 17.8781 -29.0005 -4.77742 -5.75297 5.30125 -0.874379 2.73911 -5.19835 1.11857 -0.0331678 -10.4514 27.9897 1.11556 0.111906 27.8586 1.1103 0.125115 5.95568 -0.499365 -12.4652 36.3955 0.713221 0.253338 29.9908 0.577324 0.240663 16.7274 -2.127 -14.8002 29.0538 0.0020489 0.383594 27.2159 -0.00384434 0.358274 54.5333 -10.5401 -13.0539 42.9246 -2.19446 1.25677 41.0556 -2.12572 1.16162 -0.366371 -0.15423 0.068528 -0.47331 4.60916 0 0.851874 -4.19719 4.32531 -0.00226054 -0.822135 -0.311533 -0.785652 -1.90732 0.0395647 0.474618 6.21808 0.0559529 0.334709 -4.05568 4.34824 0.00222383 -0.805985 0.30901 
-0.283623 100.893 -0.858653 0.0668433 -0.218948 37.2477 -1.12671 -0.90371 1.75564 5.33608e-08 -1.60083e-07 0 -0.248674 -0.31838 1.79967 0.828373 -6.51859 -1.26546 -0.564494 -1.80087 -0.707756 5.33608e-08 -1.59105e-15 0 -63.1247 -2.81337 2.86025 2.27589e-06 -3.68804e-06 -40.6449 -180 51.8147 -90 -0.841339 11.1377 28.0099 4.76004 1.7924 6.01634 1.77836 7.1185 13.2295 -30.5772 -2.66417 15.0138 -1.32102 0.0505992 0 -3.97017 0.153143 0 -32.5861 -3.70877 14.8173 -0 0 0 -2.10899 0.0360717 0.0395647 -36.6154 -4.82457 14.3873 -10.8682 -0.0213452 -0.125115 -1.49512 -0.00442434 0 -44.5426 -6.75947 9.19715 -14.0161 -0.82861 0.0969133 -0.787301 -0.0488961 0.163129 5.33608e-08 -1.59105e-15 0 65.4119 -72.2227 38.0991 3.67195e-06 -1.04659e-06 95.0525 -53.4726 -79.2042 -27.3901 16.2188 17.8781 -29.0005 -4.79143 -5.73924 5.27074 -0.873757 2.7368 -5.19428 1.13206 -0.0335919 -10.4271 27.9283 1.1131 0.125115 27.7912 1.1076 0.125115 5.96181 -0.498184 -12.429 36.2718 0.710584 0.259443 29.8897 0.575196 0.240663 16.658 -2.11754 -14.8011 28.8875 0.00148414 0.381548 27.0705 -0.0042781 0.353877 54.4867 -10.5309 -13.0563 42.6907 -2.18603 1.24551 40.8878 -2.11939 1.15215 -0.47579 -1.49372 0 -0.475953 7.59249 0.068528 1.00476 -5.6679 5.47877 -0.00226388 -0.821931 -0.311533 -0.872858 -3.27757 0 0.477341 8.72108 -0.125115 0.467576 -5.0151 5.51168 0.00222926 -0.807383 0.298707 
